<?xml version="1.0" encoding="utf-8"?>
<!-- Generator: Adobe Illustrator 28.2.0, SVG Export Plug-In . SVG Version: 6.00 Build 0)  -->
<svg version="1.1" id="Layer_1" xmlns="http://www.w3.org/2000/svg" xmlns:xlink="http://www.w3.org/1999/xlink" x="0px" y="0px"
	 viewBox="0 0 32 32" style="enable-background:new 0 0 32 32;" xml:space="preserve">
<style type="text/css">
	.st0{fill:#FFD70E;}
	.st1{fill:#F74F20;}
</style>
<polygon class="st0" points="26.05,10.74 24.77,8.1 21.16,4.84 19.22,4.35 12.78,4.35 10.84,4.84 7.23,8.1 5.95,10.74 5.35,15.96 
	7.08,20.24 11.03,18.97 12.78,24.64 19.22,24.64 20.97,18.97 24.92,20.24 26.65,15.96 "/>
<polygon class="st1" points="26.65,15.96 26.13,17.26 25.69,18.35 24.95,18.31 24.56,19.09 22.58,18.77 22.33,19.41 20.97,18.97 
	20.82,19.44 19.52,19.23 17.81,19.99 16,19.23 14.19,19.99 12.48,19.23 11.18,19.44 11.03,18.97 9.67,19.41 9.42,18.77 7.44,19.09 
	7.05,18.31 6.31,18.35 5.95,17.44 5.35,15.96 2,17.41 9.55,26.04 10.51,25.94 11.03,26.85 12.42,26.45 12.78,27.37 13.89,26.93 
	15.02,27.65 16,26.97 16.98,27.65 18.11,26.93 19.22,27.37 19.58,26.45 20.97,26.85 21.49,25.94 22.45,26.04 30,17.41 "/>
</svg>
